<svg width="32" height="32" viewBox="0 0 32 32" fill="none" xmlns="http://www.w3.org/2000/svg">
<rect width="32" height="32" rx="4" fill="#00022F"/>
<circle cx="16" cy="16" r="2.5" fill="white"/>
<rect x="20.5" y="15" width="9.5" height="2" rx="1" fill="#FAFF00"/>
<rect x="2" y="15" width="9.5" height="2" rx="1" fill="#FAFF00"/>
<rect x="18.4749" y="12.1109" width="9.5" height="2" rx="1" transform="rotate(-45 18.4749 12.1109)" fill="#FF6B00"/>
<rect x="5.39343" y="25.1924" width="9.5" height="2" rx="1" transform="rotate(-45 5.39343 25.1924)" fill="#FF6B00"/>
<rect x="15" y="30" width="9.5" height="2" rx="1" transform="rotate(-90 15 30)" fill="#0094FF"/>
<rect x="15" y="11.5" width="9.5" height="2" rx="1" transform="rotate(-90 15 11.5)" fill="#0094FF"/>
<rect x="25.1924" y="26.6066" width="9.5" height="2" rx="1" transform="rotate(-135 25.1924 26.6066)" fill="#FF6B00"/>
<rect x="12.1109" y="13.5251" width="9.5" height="2" rx="1" transform="rotate(-135 12.1109 13.5251)" fill="#FF6B00"/>
</svg>
